HIERARCHY
ROOT hip
{
  OFFSET 0 0 0
  CHANNELS 6 Xposition Yposition Zposition Zrotation Yrotation Xrotation
  JOINT abdomen
  {
    OFFSET 0 20.6881 -0.73152
    CHANNELS 3 Zrotation Xrotation Yrotation
    JOINT chest
    {
      OFFSET 0 11.7043 -0.48768
      CHANNELS 3 Zrotation Xrotation Yrotation
      JOINT neck
      {
        OFFSET 0 22.1894 -2.19456
        CHANNELS 3 Zrotation Xrotation Yrotation
        JOINT head
        {
          OFFSET -0.24384 7.07133 1.2192
          CHANNELS 3 Zrotation Xrotation Yrotation
          JOINT leftEye
          {
            OFFSET 4.14528 8.04674 8.04672
            CHANNELS 3 Zrotation Xrotation Yrotation
            End Site
            {
              OFFSET 1 0 0
            }
          }
          JOINT rightEye
          {
            OFFSET -3.6576 8.04674 8.04672
            CHANNELS 3 Zrotation Xrotation Yrotation
            End Site
            {
              OFFSET 1 0 0
            }
          }
        }
      }
      JOINT rCollar
      {
        OFFSET -2.68224 19.2634 -4.8768
        CHANNELS 3 Zrotation Xrotation Yrotation
        JOINT rShldr
        {
          OFFSET -8.77824 -1.95073 1.46304
          CHANNELS 3 Zrotation Xrotation Yrotation
          JOINT rForeArm
          {
            OFFSET -28.1742 -1.7115 0.48768
            CHANNELS 3 Zrotation Xrotation Yrotation
            JOINT rHand
            {
              OFFSET -22.5879 0.773209 7.07136
              CHANNELS 3 Zrotation Xrotation Yrotation
              JOINT rThumb1
              {
                OFFSET -1.2192 -0.487915 3.41376
                CHANNELS 3 Zrotation Xrotation Yrotation
                JOINT rThumb2
                {
                  OFFSET -3.37035 -0.52449 3.41376
                  CHANNELS 3 Zrotation Xrotation Yrotation
                  End Site
                  {
                    OFFSET -1.78271 -1.18214 1.43049
                  }
                }
              }
              JOINT rIndex1
              {
                OFFSET -7.75947 0.938293 5.60832
                CHANNELS 3 Zrotation Xrotation Yrotation
                JOINT rIndex2
                {
                  OFFSET -2.54057 -0.884171 1.56538
                  CHANNELS 3 Zrotation Xrotation Yrotation
                  End Site
                  {
                    OFFSET -1.62519 -0.234802 1.16502
                  }
                }
              }
              JOINT rMid1
              {
                OFFSET -8.24714 1.18213 3.41376
                CHANNELS 3 Zrotation Xrotation Yrotation
                JOINT rMid2
                {
                  OFFSET -3.10165 -0.590103 1.0647
                  CHANNELS 3 Zrotation Xrotation Yrotation
                  End Site
                  {
                    OFFSET -2.48547 -0.328903 0.83742
                  }
                }
              }
              JOINT rRing1
              {
                OFFSET -8.82822 0.546677 1.51678
                CHANNELS 3 Zrotation Xrotation Yrotation
                JOINT rRing2
                {
                  OFFSET -2.60934 -0.819778 -0.0198488
                  CHANNELS 3 Zrotation Xrotation Yrotation
                  End Site
                  {
                    OFFSET -2.33842 -0.294052 0.168128
                  }
                }
              }
              JOINT rPinky1
              {
                OFFSET -8.27202 -0.0477905 -0.4584
                CHANNELS 3 Zrotation Xrotation Yrotation
                JOINT rPinky2
                {
                  OFFSET -1.82734 -0.647385 -0.700984
                  CHANNELS 3 Zrotation Xrotation Yrotation
                  End Site
                  {
                    OFFSET -1.69225 -0.51767 -0.607171
                  }
                }
              }
            }
          }
        }
      }
      JOINT lCollar
      {
        OFFSET 2.68224 19.2634 -4.8768
        CHANNELS 3 Zrotation Xrotation Yrotation
        JOINT lShldr
        {
          OFFSET 8.77824 -1.95073 1.46304
          CHANNELS 3 Zrotation Xrotation Yrotation
          JOINT lForeArm
          {
            OFFSET 28.1742 -1.7115 0.48768
            CHANNELS 3 Zrotation Xrotation Yrotation
            JOINT lHand
            {
              OFFSET 22.5879 0.773209 7.07136
              CHANNELS 3 Zrotation Xrotation Yrotation
              JOINT lThumb1
              {
                OFFSET 1.2192 -0.487915 3.41376
                CHANNELS 3 Zrotation Xrotation Yrotation
                JOINT lThumb2
                {
                  OFFSET 3.37035 -0.52449 3.41376
                  CHANNELS 3 Zrotation Xrotation Yrotation
                  End Site
                  {
                    OFFSET 1.78271 -1.18214 1.43049
                  }
                }
              }
              JOINT lIndex1
              {
                OFFSET 7.75947 0.938293 5.60832
                CHANNELS 3 Zrotation Xrotation Yrotation
                JOINT lIndex2
                {
                  OFFSET 2.54057 -0.884171 1.56538
                  CHANNELS 3 Zrotation Xrotation Yrotation
                  End Site
                  {
                    OFFSET 1.62519 -0.234802 1.16502
                  }
                }
              }
              JOINT lMid1
              {
                OFFSET 8.24714 1.18213 3.41376
                CHANNELS 3 Zrotation Xrotation Yrotation
                JOINT lMid2
                {
                  OFFSET 3.10165 -0.590103 1.0647
                  CHANNELS 3 Zrotation Xrotation Yrotation
                  End Site
                  {
                    OFFSET 2.48547 -0.328903 0.83742
                  }
                }
              }
              JOINT lRing1
              {
                OFFSET 8.82822 0.546677 1.51678
                CHANNELS 3 Zrotation Xrotation Yrotation
                JOINT lRing2
                {
                  OFFSET 2.60934 -0.819778 -0.0198488
                  CHANNELS 3 Zrotation Xrotation Yrotation
                  End Site
                  {
                    OFFSET 2.33842 -0.294052 0.168128
                  }
                }
              }
              JOINT lPinky1
              {
                OFFSET 8.27202 -0.0477905 -0.4584
                CHANNELS 3 Zrotation Xrotation Yrotation
                JOINT lPinky2
                {
                  OFFSET 1.82734 -0.647385 -0.700984
                  CHANNELS 3 Zrotation Xrotation Yrotation
                  End Site
                  {
                    OFFSET 1.69225 -0.51767 -0.607171
                  }
                }
              }
            }
          }
        }
      }
    }
  }
  JOINT rButtock
  {
    OFFSET -8.77824 4.35084 1.2192
    CHANNELS 3 Zrotation Xrotation Yrotation
    JOINT rThigh
    {
      OFFSET 0 -1.70687 -2.19456
      CHANNELS 3 Zrotation Xrotation Yrotation
      JOINT rShin
      {
        OFFSET 0 -36.8199 0.73152
        CHANNELS 3 Zrotation Xrotation Yrotation
        JOINT rFoot
        {
          OFFSET 0.73152 -45.1104 -5.12064
          CHANNELS 3 Zrotation Xrotation Yrotation
          End Site
          {
            OFFSET -1.1221 -3.69964 12.103
          }
        }
      }
    }
  }
  JOINT lButtock
  {
    OFFSET 8.77824 4.35084 1.2192
    CHANNELS 3 Zrotation Xrotation Yrotation
    JOINT lThigh
    {
      OFFSET 0 -1.70687 -2.19456
      CHANNELS 3 Zrotation Xrotation Yrotation
      JOINT lShin
      {
        OFFSET 0 -36.8199 0.73152
        CHANNELS 3 Zrotation Xrotation Yrotation
        JOINT lFoot
        {
          OFFSET -0.73152 -45.1104 -5.12064
          CHANNELS 3 Zrotation Xrotation Yrotation
          End Site
          {
            OFFSET 1.1221 -3.69964 12.103
          }
        }
      }
    }
  }
}
MOTION
Frames:	5
Frame Time:	0.03333
0.0 0.0 0.0 0.0 0.0 0.0 0.0 0.0 0.0 0.0 0.0 0.0 0.0 0.0 0.0 0.0 0.0 0.0 0.0 0.0 0.0 0.0 0.0 0.0 0.0 0.0 0.0 0.0 0.0 0.0 0.0 0.0 0.0 0.0 0.0 0.0 0.0 0.0 0.0 0.0 0.0 0.0 0.0 0.0 0.0 0.0 0.0 0.0 0.0 0.0 0.0 0.0 0.0 0.0 0.0 0.0 0.0 0.0 0.0 0.0 0.0 0.0 0.0 0.0 0.0 0.0 0.0 0.0 0.0 0.0 0.0 0.0 0.0 0.0 0.0 0.0 0.0 0.0 0.0 0.0 0.0 0.0 0.0 0.0 0.0 0.0 0.0 0.0 0.0 0.0 0.0 0.0 0.0 0.0 0.0 0.0 0.0 0.0 0.0 0.0 0.0 0.0 0.0 0.0 0.0 0.0 0.0 0.0 0.0 0.0 0.0 0.0 0.0 0.0 0.0 0.0 0.0 0.0 0.0 0.0 0.0 0.0 0.0 0.0 0.0 0.0 0.0 0.0 0.0 0.0 0.0 0.0
2.8506 53.3651 -1.2475999999999998 171.236986 27.894427 176.547019 -14.387289 9.098488 -69.342205 8.303511 0.974275 75.430534 -14.877514 26.39744 -87.596356 38.88209 8.71284 48.228937 -0.003102 0.0 -6.8e-05 0.00251 -0.0 -0.001226 -0.165085 0.979174 0.219164 53.935018 -28.915221 65.42419 170.641828 -8.657678 125.474238 158.991247 -25.980909 144.694482 -166.631126 -4.304873 89.771909 -36.437728 -24.862221 8.249862 -5.796199 8.772705 3.565968 27.645737 -24.058711 -0.388136 -166.211195 -24.327788 145.093982 -170.531598 -26.269079 143.882438 -145.119281 0.185408 -179.186568 -144.947859 -51.035045 -167.229451 -137.378761 -8.618881 -134.657979 -155.004947 36.402483 -146.033056 149.904772 22.42149 -154.974672 91.789101 11.814583 -71.673263 -166.370589 5.403994 71.206974 16.687583 -11.8923 3.364566 -2.462681 -2.446029 0.327135 36.762424 26.722111 -31.721534 132.819569 12.808246 -111.109863 -106.289259 -69.970804 -54.902435 160.889832 -7.337606 -143.344929 139.204652 43.187033 -127.0586 -0.002329 0.063606 -0.020659 -11.517219 -27.753619 3.326153 77.072034 -51.583831 75.529857 145.041445 7.496342 141.718638 0.005415 2.1e-05 0.005415 -56.928608 -58.16642 26.978021 74.395726 12.872109 84.4091 95.251115 33.224499 -161.898465 -0.004332 2e-05 -0.002166 9.848309 6.699539 -0.964 -8.332758 47.139592 -53.307796 36.225955 -30.465128 104.606277
3.7234999999999996 53.6519 -1.7366 170.68345 27.85495 177.93758 -15.005989 7.38192 -90.030379 6.596809 3.489354 95.671529 6.707129 24.653843 98.801335 -35.950112 17.123688 -132.070215 -0.003254 0.0 -0.000682 0.003452 0.0 0.002843 -9.650642 34.836419 11.198411 163.698665 5.111457 135.688909 -171.40677 -75.326335 131.827376 142.561654 -47.93193 130.70334 -7.758788 7.438855 1.682969 -41.893869 24.527969 40.68333 155.583864 -71.205637 99.109649 131.378466 -68.018026 70.052958 -39.287804 53.366756 32.87693 -88.568342 63.974291 80.472204 -72.757968 -72.14351 -89.772087 -68.800507 -82.385224 -94.790863 -33.729702 -43.379015 -32.653795 -155.635821 43.746441 -148.65359 155.417819 -2.951356 -161.718634 176.961234 40.959445 -108.314586 32.509985 66.816235 -138.947786 10.04088 -47.148427 11.383909 121.364117 30.329196 -71.957862 78.479246 -4.458272 -47.685347 -168.923702 -66.170198 -109.491985 84.875354 54.509078 -70.588216 36.034748 51.723585 -29.83183 -13.359605 -30.009274 1.30685 0.015143 -1.323141 0.415936 -8.979111 16.051809 -2.170475 152.8738 39.991945 148.059359 -10.793801 26.335765 -4.178302 -0.008138 -0.001264 -0.004069 -61.146338 -60.357913 115.588355 32.913186 -61.176021 -173.010617 70.443106 21.872748 -6.702163 179.999617 75.750552 0.000315 -120.486788 78.652939 -58.820539 8.017071 46.174515 76.626867 174.047671 -21.987801 40.655687
4.366 53.845699999999994 -2.1921 170.123285 27.953272 179.249426 -17.921973 8.907734 2.105054 5.251748 -9.20882 4.170392 -12.716377 31.421664 -118.608036 37.723427 25.94993 73.500791 0.002936 -0.0 -0.002792 -0.002661 0.0 -0.001581 -142.973809 39.431954 147.390861 81.313137 68.38241 -103.013892 20.916694 76.855407 1.287583 -12.571956 56.744571 7.5582 99.081029 -51.215646 44.800884 -14.013851 -68.706777 -39.644442 -156.464289 -26.639295 122.369626 9.579486 5.404916 -9.033497 1.280275 -3.803235 -0.680384 -85.935341 64.2459 77.775288 -75.674149 -72.117345 -92.828532 -150.962428 -1.625894 176.634424 -0.320881 -0.822641 -0.294765 -114.828114 -42.751691 -113.738065 158.815987 -59.051822 -173.167151 50.098643 41.12766 13.167024 -78.1234 -55.511944 75.437633 118.413925 50.361212 -99.077814 68.483263 37.953151 -35.659337 125.151537 -21.053909 -83.850738 -5.92103 -10.174807 2.96727 65.040622 48.656008 -51.06845 -0.047019 -0.138871 0.024659 83.253982 64.353552 -75.224002 71.927945 72.972113 -89.772971 -5.86531 -0.004154 4.467152 80.94085 -51.22846 79.359137 -4.200233 2.10705 0.337641 179.961197 75.749267 0.031926 153.05383 0.610022 88.800176 76.610949 2.498702 65.74372 -93.04256 -12.162662 170.900778 179.99725 75.750724 0.002838 -123.209571 78.737751 122.701055 11.028369 -41.722471 99.03959 -46.694789 69.084925 149.405806
4.9008 53.893299999999996 -2.6197000000000004 169.449698 27.710448 -179.750965 -15.968374 5.190833 -107.545719 4.854077 4.609984 112.798164 -14.019606 29.851668 -106.436792 39.67279 19.037893 63.597777 -0.001819 -0.0 0.004446 0.003787 0.0 0.003284 -142.974197 39.431896 147.390623 -170.805 -41.685182 -142.354268 171.472022 43.890945 135.552443 155.104919 -32.320577 142.181191 4.531502 -4.513822 -0.522053 -75.200939 28.618736 67.366421 -14.226925 19.20412 9.55907 6.252685 4.264496 -0.055229 23.905518 -61.33353 1.399873 15.707978 -37.095858 -0.7222 -0.01381 -1.322973 -0.417061 -6.52355 62.755728 19.319472 44.738833 86.377547 -5.371333 7.398672 17.845463 3.460935 85.537382 68.181785 -88.68886 -74.653271 2.373717 -49.3093 86.690137 -31.550237 -59.146391 175.429861 -66.230684 -161.261358 -175.879196 -21.257114 -88.493033 -19.980631 -69.288111 -12.949904 1.398004 2.231366 -0.807827 168.740317 -23.242043 -109.24724 0.572173 1.64815 -0.322351 9.148401 29.6514 -7.372473 74.38982 -72.134463 91.483428 -14.720883 -0.029955 4.624451 145.172688 12.067744 141.822959 1.008026 -7.779804 4.652279 -0.0 -0.001072 -0.000268 -63.17541 -60.107266 -60.31136 -33.900239 68.617914 -57.638275 149.655773 28.328241 -83.534447 0.000965 -0.001072 0.000482 9.112023 11.595857 -1.667785 -9.567847 38.764794 -112.098262 -85.099103 42.809512 -175.349687
